<svg version="1.0" xmlns="http://www.w3.org/2000/svg" width="298.667" height="298.667" viewBox="0 0 224 224"><path d="M78 12c-19.1 4.1-36.9 13.9-48.8 26.9-6.9 7.5-7.9 8.7-10.9 13.1C-1 80.6-5.2 119.4 7.6 151.9c11.5 28.9 36.2 51.2 65.9 59.2 9.2 2.5 29 3.4 37 1.8 2.8-.6 6.1-1.2 7.4-1.5 8.6-1.7 25.2-9.4 31.2-14.3l2.4-2-3.2-.2c-1.8-.1-3.6-.2-4-.3-.5-.1-2.7-.6-5.1-1-4.9-.9-14.2-4.5-19.9-7.7-19.4-10.9-33.5-29.4-39.4-51.7-2.4-8.7-3.3-27.5-1.9-35.7 1.7-9.4 2.1-10.9 4.9-18.2 7.3-18.8 22.1-35.1 39.8-44.1 5.6-2.9 20.6-7.2 25.2-7.2l3.6-.1-2.9-2.4c-3.1-2.5-14.2-8.3-21.1-11C114.3 10.3 92.9 8.7 78 12z"/><path d="M153.8 39.5c-.2.1-3.1.5-6.4.9-18.7 1.9-38.9 15.5-49.3 33.1-13.9 23.4-13.9 53.5 0 77.2 5.1 8.7 18 21.1 26.6 25.6 26.5 13.8 56.8 9.2 77.9-12 8.7-8.7 16.9-22.9 18.8-32.5 2-10 2.4-12.9 2.4-19.6.2-26.9-13.8-51.3-36.8-64.5-5.9-3.4-15.6-6.5-22.2-7.2-2.9-.4-6.5-.8-8-1-1.5-.1-2.8-.2-3 0z"/></svg>