<?xml version="1.0" standalone="no"?>
<!DOCTYPE svg PUBLIC "-//W3C//DTD SVG 20010904//EN"
 "http://www.w3.org/TR/2001/REC-SVG-20010904/DTD/svg10.dtd">
<svg version="1.0" xmlns="http://www.w3.org/2000/svg"
 width="224.000000pt" height="224.000000pt" viewBox="0 0 224.000000 224.000000"
 preserveAspectRatio="xMidYMid meet">
<metadata>
Created by potrace 1.14, written by Peter Selinger 2001-2017
</metadata>
<g transform="translate(0.000000,224.000000) scale(0.100000,-0.100000)"
fill="#000000" stroke="none">
<path d="M780 2120 c-191 -41 -369 -139 -488 -269 -69 -75 -79 -87 -109 -131
-193 -286 -235 -674 -107 -999 115 -289 362 -512 659 -592 92 -25 290 -34 370
-18 28 6 61 12 74 15 86 17 252 94 312 143 l24 20 -32 2 c-18 1 -36 2 -40 3
-5 1 -27 6 -51 10 -49 9 -142 45 -199 77 -194 109 -335 294 -394 517 -24 87
-33 275 -19 357 17 94 21 109 49 182 73 188 221 351 398 441 56 29 206 72 252
72 l36 1 -29 24 c-31 25 -142 83 -211 110 -132 52 -346 68 -495 35z"/>
<path d="M1538 1845 c-2 -1 -31 -5 -64 -9 -187 -19 -389 -155 -493 -331 -139
-234 -139 -535 0 -772 51 -87 180 -211 266 -256 265 -138 568 -92 779 120 87
87 169 229 188 325 20 100 24 129 24 196 2 269 -138 513 -368 645 -59 34 -156
65 -222 72 -29 4 -65 8 -80 10 -15 1 -28 2 -30 0z"/>
</g>
</svg>
